PathFileType   4   (X/Y/Z)
DataRate	CameraRate	NumFrames	NumMarkers	Units	OrigDataRate	OrigDataStartFrame	OrigNumFrames
120.0	120.0	9	37	mm	120.0	1	182
Frame#	Time	midhip	hip_r	hip_l	knee_r	knee_l	ankle_r	ankle_l	midasis	asis_r	asis_l	psis_r	psis_l	epicondLat_r	epicondLat_l	epicondMed_r	epicondMed_l	malleolusLat_r	malleolusLat_l	malleolusMedv_r	malleolusMedv_l	neck	subclavicle_r	subclavicle_l	sternalnotch	xyphoidprocess	thighwand_r	thighwand_l	upperleg1_r	upperleg1_l	upperleg2_r	upperleg2_l	shankwand_r	shankwand_l	lowerleg1_r	lowerleg1_l	toe_r	toe_l
 	 	X1	Y1	Z1	X2	Y2	Z2	X3	Y3	Z3	X4	Y4	Z4	X5	Y5	Z5	X6	Y6	Z6	X7	Y7	Z7	X8	Y8	Z8	X9	Y9	Z9	X10	Y10	Z10	X11	Y11	Z11	X12	Y12	Z12	X13	Y13	Z13	X14	Y14	Z14	X15	Y15	Z15	X16	Y16	Z16	X17	Y17	Z17	X18	Y18	Z18	X19	Y19	Z19	X20	Y20	Z20	X21	Y21	Z21	X22	Y22	Z22	X23	Y23	Z23	X24	Y24	Z24	X25	Y25	Z25	X26	Y26	Z26	X27	Y27	Z27	X28	Y28	Z28	X29	Y29	Z29	X30	Y30	Z30	X31	Y31	Z31	X32	Y32	Z32	X33	Y33	Z33	X34	Y34	Z34	X35	Y35	Z35	X36	Y36	Z36	X37	Y37	Z37

	1	0.25833	-900.397	900.396	271.941	-901.864	888.018	321.707	-898.250	891.784	215.265	-922.207	474.437	353.307	-809.880	487.074	209.361	-1190.325	153.900	378.262	-807.725	67.363	229.021	-819.046	984.640	274.588	-822.552	980.986	377.869	-815.540	988.295	171.307	-1020.368	1015.009	308.627	-1018.630	1017.939	223.232	-916.354	478.661	412.368	-802.584	489.528	150.361	-907.236	475.172	294.136	-830.469	485.565	256.327	-1195.807	161.355	415.118	-810.883	65.504	189.691	-1189.421	165.758	346.564	-804.472	80.209	257.902	-932.264	1470.034	260.362	-840.540	1394.875	345.467	-839.494	1393.895	189.641	-852.220	1396.370	263.497	-825.917	1193.157	258.207	-882.922	580.871	489.307	-691.809	638.198	206.143	-855.030	637.924	417.373	-771.257	682.058	158.413	-855.666	555.213	399.710	-767.457	594.606	165.065	-1138.570	223.504	479.094	-707.908	185.732	227.393	-1111.661	271.532	413.932	-775.775	232.481	214.110	-1142.933	50.604	343.819	-681.304	42.969	237.875
	2	0.26667	-895.923	900.397	271.367	-897.170	888.230	320.949	-893.542	892.049	214.509	-912.957	474.131	353.076	-807.898	486.945	209.045	-1183.470	155.809	379.498	-807.845	67.347	229.278	-814.317	984.850	273.889	-817.836	981.145	377.164	-810.797	988.555	170.614	-1015.642	1015.209	308.263	-1013.913	1018.270	222.856	-907.149	478.491	412.131	-800.230	489.362	150.091	-898.833	474.906	293.840	-828.569	485.590	255.627	-1188.297	162.983	416.502	-810.750	65.449	189.931	-1182.756	168.080	347.985	-804.435	80.093	258.144	-927.285	1470.203	259.165	-835.544	1395.216	344.303	-834.621	1394.028	188.465	-847.289	1396.600	262.334	-820.967	1193.383	257.294	-874.848	580.937	488.975	-688.915	637.559	206.577	-847.646	638.135	416.907	-767.792	681.941	158.381	-847.631	555.375	399.246	-764.435	594.456	164.944	-1129.437	224.112	480.056	-707.287	185.285	228.160	-1103.293	272.662	415.016	-774.899	232.322	214.254	-1135.780	52.853	344.974	-681.184	42.870	237.975
	3	0.27500	-891.536	900.396	270.853	-892.545	888.431	320.272	-888.901	892.287	213.834	-903.629	473.885	352.707	-805.931	486.809	208.754	-1176.281	157.537	380.477	-808.010	67.330	229.538	-809.666	985.052	273.260	-813.203	981.309	376.548	-806.129	988.795	169.971	-1011.027	1015.391	307.924	-1009.301	1018.564	222.510	-897.849	478.351	411.757	-797.941	489.182	149.841	-890.409	474.619	293.570	-826.694	485.561	254.954	-1180.469	164.407	417.615	-810.643	65.392	190.173	-1175.466	169.873	349.042	-804.400	79.996	258.384	-922.411	1470.361	258.055	-830.583	1395.522	343.221	-829.793	1394.146	187.320	-842.398	1396.803	261.229	-816.006	1193.589	256.412	-866.697	581.013	488.511	-686.076	636.903	206.934	-840.178	638.354	416.319	-764.469	681.746	158.302	-839.547	555.630	398.750	-761.535	594.252	164.785	-1120.085	224.514	480.762	-706.678	184.853	228.991	-1094.702	273.586	415.795	-774.017	232.146	214.413	-1127.384	55.143	346.343	-681.058	42.789	238.080
	4	0.28333	-886.942	900.688	270.408	-887.996	888.625	319.666	-884.324	892.501	213.230	-894.262	473.733	352.213	-803.981	486.674	208.504	-1168.655	159.017	381.213	-808.179	67.319	229.791	-805.092	985.244	272.692	-808.656	981.482	376.011	-801.528	989.007	169.374	-1006.516	1015.563	307.583	-1004.777	1018.829	222.169	-888.490	478.277	411.257	-795.718	488.995	149.627	-881.884	474.469	293.131	-824.996	485.606	254.431	-1172.276	165.607	418.462	-810.534	65.343	190.411	-1167.687	171.164	349.758	-804.377	79.931	258.634	-917.568	1470.587	257.022	-825.640	1395.825	342.112	-825.045	1394.283	186.223	-837.558	1397.020	260.139	-811.195	1193.798	255.505	-858.487	581.122	487.919	-683.295	636.204	207.217	-832.707	638.648	415.676	-761.275	681.483	158.145	-831.408	555.977	398.138	-758.819	593.987	164.625	-1110.589	224.800	481.227	-706.087	184.416	229.848	-1086.104	274.389	416.290	-773.099	231.989	214.687	-1117.846	57.345	347.932	-680.932	42.721	238.208
	5	0.29167	-882.146	901.258	269.994	-883.532	888.820	319.118	-879.815	892.692	212.683	-884.885	473.696	351.607	-802.040	486.551	208.304	-1160.505	160.188	381.746	-808.322	67.320	230.031	-800.599	985.429	272.176	-804.209	981.669	375.538	-796.989	989.190	168.814	-1002.092	1015.727	307.221	-1000.331	1019.074	221.815	-879.108	478.298	410.647	-793.547	488.812	149.456	-873.400	474.481	292.471	-823.594	485.694	253.885	-1163.674	166.563	419.073	-810.409	65.310	190.638	-1159.365	172.067	350.178	-804.346	79.864	258.900	-912.721	1470.879	256.004	-820.868	1396.061	341.002	-820.423	1394.351	185.202	-832.861	1397.190	259.083	-806.866	1193.917	254.643	-850.261	581.278	487.238	-680.551	635.455	207.445	-825.201	639.042	414.925	-758.066	681.168	157.968	-823.264	556.348	397.339	-756.242	593.631	164.433	-1101.000	225.042	481.489	-705.515	183.966	230.684	-1077.325	275.108	416.549	-772.132	231.779	215.030	-1107.301	59.393	349.728	-680.816	42.670	238.364
	6	0.30000	-877.529	901.707	269.566	-879.144	889.029	318.627	-875.367	892.869	212.193	-875.544	473.792	350.912	-800.106	486.440	208.152	-1151.788	161.007	382.118	-808.423	67.334	230.254	-796.185	985.625	271.703	-799.855	981.893	375.119	-792.516	989.356	168.286	-997.741	1015.883	306.834	-995.953	1019.300	221.433	-869.746	478.432	409.946	-791.416	488.634	149.331	-865.112	474.678	291.653	-822.078	485.647	253.386	-1154.635	167.250	419.494	-810.272	65.293	190.851	-1150.572	172.590	350.442	-804.245	79.772	259.174	-907.916	1471.177	254.994	-816.208	1396.222	339.952	-815.880	1394.344	184.224	-828.257	1397.294	258.076	-802.794	1193.949	253.836	-842.034	581.502	486.505	-677.839	634.670	207.642	-817.596	639.496	414.073	-754.912	680.784	157.870	-815.161	556.773	396.403	-753.678	593.191	164.281	-1091.327	225.264	481.596	-704.962	183.506	231.446	-1068.161	275.681	416.615	-771.274	231.447	215.358	-1095.871	61.276	351.716	-680.720	42.643	238.545
	7	0.30833	-873.021	902.097	269.167	-874.810	889.268	318.202	-870.971	893.042	211.768	-866.307	474.022	350.146	-798.188	486.338	208.045	-1142.513	161.460	382.358	-808.484	67.359	230.460	-791.841	985.850	271.267	-795.574	982.180	374.744	-788.109	989.520	167.789	-993.459	1016.042	306.413	-991.620	1019.505	221.011	-860.454	478.683	409.174	-789.326	488.462	149.247	-856.851	475.054	290.715	-820.430	485.667	253.182	-1145.153	167.647	419.758	-810.138	65.291	191.049	-1141.314	172.703	350.610	-804.149	79.681	259.434	-903.159	1471.488	254.022	-811.516	1396.334	339.016	-811.344	1394.327	183.241	-823.642	1397.369	257.126	-798.699	1193.957	253.028	-833.810	581.812	485.737	-675.162	633.871	207.822	-810.003	640.007	413.196	-751.837	680.403	157.844	-807.073	557.347	395.402	-751.148	592.785	164.259	-1081.540	225.445	481.590	-704.432	183.036	232.097	-1058.734	276.088	416.550	-770.551	231.091	215.625	-1083.667	62.993	353.852	-680.648	42.646	238.746
	8	0.31667	-868.539	902.503	268.839	-870.515	889.549	317.852	-866.622	893.216	211.416	-857.220	474.389	349.322	-796.296	486.241	207.980	-1132.707	161.538	382.485	-808.515	67.390	230.650	-787.565	986.120	270.861	-791.353	982.552	374.401	-783.778	989.687	167.321	-989.245	1016.209	305.950	-987.313	1019.680	220.553	-851.273	479.054	408.341	-787.291	488.293	149.201	-848.476	475.519	289.790	-818.749	485.811	253.172	-1135.235	167.729	419.892	-810.016	65.300	191.234	-1131.729	172.435	350.737	-804.163	79.601	259.677	-898.476	1471.815	253.137	-806.809	1396.500	338.144	-806.883	1394.335	182.280	-819.060	1397.479	256.227	-794.568	1194.009	252.296	-825.608	582.207	484.950	-672.512	633.073	207.987	-802.462	640.665	412.314	-748.797	680.078	157.870	-798.968	558.067	394.411	-748.659	592.465	164.322	-1071.599	225.543	481.501	-703.924	182.558	232.636	-1049.161	276.282	416.385	-769.820	230.833	215.845	-1070.794	64.542	356.070	-680.597	42.677	238.958
	9	0.32500	-864.195	902.810	268.568	-866.261	889.881	317.572	-862.320	893.401	211.133	-848.291	474.892	348.456	-794.432	486.150	207.953	-1122.390	161.231	382.522	-808.532	67.422	230.832	-783.360	986.447	270.484	-787.195	983.020	374.082	-779.524	989.873	166.887	-985.096	1016.381	305.458	-983.035	1019.833	220.071	-842.221	479.547	407.462	-785.313	488.129	149.189	-839.960	476.054	288.913	-816.868	485.866	253.133	-1124.890	167.478	419.921	-809.914	65.315	191.413	-1121.813	171.805	350.794	-804.209	79.542	259.912	-893.959	1472.143	252.328	-802.262	1396.761	337.319	-802.556	1394.392	181.418	-814.625	1397.653	255.398	-790.470	1194.138	251.700	-817.456	582.685	484.163	-669.880	632.286	208.129	-795.009	641.476	411.458	-745.831	679.770	157.899	-790.857	558.931	393.467	-746.128	592.162	164.367	-1061.486	225.529	481.346	-703.426	182.081	233.096	-1039.394	276.246	416.102	-769.101	230.669	216.062	-1057.362	65.912	358.316	-680.565	42.731	239.169
